<!-- icon666.com - MILLIONS OF FREE VECTOR ICONS --><svg id="Layer_1" viewBox="0 0 64 64" xmlns="http://www.w3.org/2000/svg"><g><path d="m47 15c-.552 0-1-.447-1-1 0-1.654-1.346-3-3-3-.552 0-1-.447-1-1s.448-1 1-1c2.757 0 5 2.243 5 5 0 .553-.448 1-1 1z"></path></g><g><path d="m43 11h-22c-.552 0-1-.447-1-1s.448-1 1-1h22c.552 0 1 .447 1 1s-.448 1-1 1z"></path></g><g><path d="m17 15c-.552 0-1-.447-1-1 0-2.757 2.243-5 5-5 .552 0 1 .447 1 1s-.448 1-1 1c-1.654 0-3 1.346-3 3 0 .553-.448 1-1 1z"></path></g><g><path d="m21 55c-2.757 0-5-2.243-5-5 0-.553.448-1 1-1s1 .447 1 1c0 1.654 1.346 3 3 3 .552 0 1 .447 1 1s-.448 1-1 1z"></path></g><g><path d="m43 55h-22c-.552 0-1-.447-1-1s.448-1 1-1h22c.552 0 1 .447 1 1s-.448 1-1 1z"></path></g><g><path d="m47 51c-.552 0-1-.447-1-1v-36c0-.553.448-1 1-1s1 .447 1 1v36c0 .553-.448 1-1 1z"></path></g><g><path d="m43 55c-.552 0-1-.447-1-1s.448-1 1-1c1.654 0 3-1.346 3-3 0-.553.448-1 1-1s1 .447 1 1c0 2.757-2.243 5-5 5z"></path></g><g><path d="m23 27c-.552 0-1-.447-1-1v-10c0-.553.448-1 1-1s1 .447 1 1v10c0 .553-.448 1-1 1z"></path></g><g><path d="m41 17h-18c-.552 0-1-.447-1-1s.448-1 1-1h18c.552 0 1 .447 1 1s-.448 1-1 1z"></path></g><g><path d="m41 27c-.552 0-1-.447-1-1v-10c0-.553.448-1 1-1s1 .447 1 1v10c0 .553-.448 1-1 1z"></path></g><g><path d="m41 27h-18c-.552 0-1-.447-1-1s.448-1 1-1h18c.552 0 1 .447 1 1s-.448 1-1 1z"></path></g><g><path d="m17 51c-.552 0-1-.447-1-1v-36c0-.553.448-1 1-1s1 .447 1 1v36c0 .553-.448 1-1 1z"></path></g><g><path d="m25 34h-2c-.552 0-1-.447-1-1s.448-1 1-1h2c.552 0 1 .447 1 1s-.448 1-1 1z"></path></g><g><path d="m33 34h-2c-.552 0-1-.447-1-1s.448-1 1-1h2c.552 0 1 .447 1 1s-.448 1-1 1z"></path></g><g><path d="m41 34h-2c-.552 0-1-.447-1-1s.448-1 1-1h2c.552 0 1 .447 1 1s-.448 1-1 1z"></path></g><g><path d="m25 41h-2c-.552 0-1-.447-1-1s.448-1 1-1h2c.552 0 1 .447 1 1s-.448 1-1 1z"></path></g><g><path d="m33 41h-2c-.552 0-1-.447-1-1s.448-1 1-1h2c.552 0 1 .447 1 1s-.448 1-1 1z"></path></g><g><path d="m41 41h-2c-.552 0-1-.447-1-1s.448-1 1-1h2c.552 0 1 .447 1 1s-.448 1-1 1z"></path></g><g><path d="m25 48h-2c-.552 0-1-.447-1-1s.448-1 1-1h2c.552 0 1 .447 1 1s-.448 1-1 1z"></path></g><g><path d="m33 48h-2c-.552 0-1-.447-1-1s.448-1 1-1h2c.552 0 1 .447 1 1s-.448 1-1 1z"></path></g><g><path d="m41 48h-2c-.552 0-1-.447-1-1s.448-1 1-1h2c.552 0 1 .447 1 1s-.448 1-1 1z"></path></g></svg>