<svg xmlns="http://www.w3.org/2000/svg" version="1.0" width="28" height="28" viewBox="0 0 736.000000 736.000000" preserveAspectRatio="xMidYMid meet">

<g transform="translate(0.000000,736.000000) scale(0.100000,-0.100000)" fill="#3fd2c7" stroke="none">
<path d="M1465 6773 c-192 -24 -387 -103 -543 -220 -247 -185 -412 -444 -467 -736 -22 -119 -23 -4250 0 -4379 39 -225 141 -420 313 -600 174 -182 379 -296 619 -345 83 -17 208 -18 2198 -18 1739 0 2123 2 2185 14 235 42 428 142 604 311 115 111 195 218 256 344 64 131 97 258 110 421 8 88 10 790 8 2155 -4 2024 -4 2025 -25 2120 -53 236 -155 423 -323 590 -142 143 -282 231 -458 290 -190 63 -58 60 -2356 59 -1150 -1 -2104 -4 -2121 -6z m967 -1052 c32 -12 98 -105 182 -254 37 -67 80 -142 94 -167 14 -25 62 -112 107 -195 44 -82 97 -172 117 -200 79 -111 97 -176 67 -243 -23 -54 -130 -166 -228 -240 -119 -89 -227 -188 -260 -239 -61 -91 -46 -131 181 -499 189 -308 436 -580 725 -797 192 -146 498 -330 598 -362 54 -17 58 -17 95 0 45 20 122 99 302 307 221 255 261 265 475 125 54 -35 168 -102 253 -147 374 -200 535 -303 546 -347 10 -39 -3 -220 -21 -288 -40 -149 -91 -251 -163 -323 -124 -124 -399 -256 -639 -308 -155 -33 -363 -18 -563 42 -170 51 -539 197 -695 274 -376 186 -692 426 -1070 811 -374 381 -638 764 -801 1164 -116 283 -202 544 -224 680 -35 215 -20 372 57 586 91 254 226 450 358 521 140 75 425 130 507 99z" fill="#3fd2c7"/>
</g>
</svg>