<?xml version="1.0" encoding="UTF-8"?>
<svg xmlns="http://www.w3.org/2000/svg" xmlns:xlink="http://www.w3.org/1999/xlink" width="30px" height="30px" viewBox="0 0 30 30" version="1.1">
<g id="surface1">
<path style=" stroke:none;fill-rule:nonzero;fill:rgb(0%,0%,0%);fill-opacity:1;" d="M 13.417969 9.820312 C 13.066406 10.171875 13.066406 10.742188 13.417969 11.09375 C 13.769531 11.445312 14.339844 11.445312 14.691406 11.09375 Z M 16.78125 7.730469 L 17.417969 8.367188 Z M 22.234375 7.730469 L 21.597656 8.367188 Z M 22.234375 13.183594 L 21.597656 12.546875 Z M 18.871094 15.273438 C 18.519531 15.625 18.519531 16.195312 18.871094 16.542969 C 19.222656 16.894531 19.792969 16.894531 20.144531 16.542969 Z M 16.511719 20.183594 C 16.863281 19.832031 16.863281 19.261719 16.511719 18.910156 C 16.160156 18.558594 15.589844 18.558594 15.238281 18.910156 Z M 13.148438 22.269531 L 13.777344 22.914062 L 13.785156 22.90625 Z M 7.730469 22.238281 L 7.09375 22.875 Z M 7.695312 16.820312 L 7.058594 16.183594 L 7.050781 16.191406 Z M 11.058594 14.730469 C 11.410156 14.378906 11.410156 13.808594 11.058594 13.457031 C 10.707031 13.105469 10.136719 13.105469 9.785156 13.457031 Z M 18.328125 12.910156 C 18.679688 12.558594 18.679688 11.988281 18.328125 11.636719 C 17.976562 11.285156 17.40625 11.285156 17.054688 11.636719 Z M 11.605469 17.089844 C 11.253906 17.441406 11.253906 18.011719 11.605469 18.363281 C 11.957031 18.714844 12.523438 18.714844 12.875 18.363281 Z M 14.691406 11.09375 L 17.417969 8.367188 L 16.144531 7.09375 L 13.417969 9.820312 Z M 17.417969 8.367188 C 18.574219 7.210938 20.445312 7.210938 21.597656 8.367188 L 22.871094 7.09375 C 21.015625 5.234375 18.003906 5.234375 16.144531 7.09375 Z M 21.597656 8.367188 C 22.753906 9.519531 22.753906 11.390625 21.597656 12.546875 L 22.871094 13.820312 C 24.730469 11.960938 24.730469 8.949219 22.871094 7.09375 Z M 21.597656 12.546875 L 18.871094 15.273438 L 20.144531 16.542969 L 22.871094 13.820312 Z M 15.238281 18.910156 L 12.511719 21.632812 L 13.785156 22.90625 L 16.511719 20.183594 Z M 12.519531 21.625 C 11.359375 22.753906 9.511719 22.746094 8.367188 21.601562 L 7.09375 22.875 C 8.933594 24.714844 11.910156 24.730469 13.777344 22.914062 Z M 8.367188 21.601562 C 7.222656 20.457031 7.210938 18.605469 8.339844 17.449219 L 7.050781 16.191406 C 5.234375 18.054688 5.253906 21.035156 7.09375 22.875 Z M 8.332031 17.457031 L 11.058594 14.730469 L 9.785156 13.457031 L 7.058594 16.183594 Z M 17.054688 11.636719 L 11.605469 17.089844 L 12.875 18.363281 L 18.328125 12.910156 Z M 17.054688 11.636719 "/>
</g>
</svg>
