<?xml version="1.0" encoding="UTF-8"?>
<!DOCTYPE svg PUBLIC "-//W3C//DTD SVG 1.1//EN" "http://www.w3.org/Graphics/SVG/1.1/DTD/svg11.dtd">
<!-- Creator: CorelDRAW 2018 (64-Bit) -->
<svg xmlns="http://www.w3.org/2000/svg" xml:space="preserve" width="46.642mm" height="9.7353mm" version="1.1" style="shape-rendering:geometricPrecision; text-rendering:geometricPrecision; image-rendering:optimizeQuality; fill-rule:evenodd; clip-rule:evenodd"
viewBox="0 0 1621.08 338.36"
 xmlns:xlink="http://www.w3.org/1999/xlink">
 <defs>
  <style type="text/css">
   <![CDATA[
    .fil2 {fill:#2C69A7}
    .fil1 {fill:#85C6F1;fill-rule:nonzero}
    .fil0 {fill:#2C69A7;fill-rule:nonzero}
    .fnt0 {font-weight:600;font-size:145.43px;font-family:'Cormorant SC Semibold'}
   ]]>
  </style>
 </defs>
 <g id="Слой_x0020_1">
  <metadata id="CorelCorpID_0Corel-Layer"/>
  <path class="fil0" d="M188.61 95.11l0.05 -0.78c0,-10.64 -8.63,-19.27 -19.27,-19.27 -10.64,0 -19.27,8.63 -19.27,19.27 0,0.72 0.08,1.43 0.15,2.13 0.6,2.03 0.95,4.17 0.95,6.4 0,12.26 -9.93,22.19 -22.18,22.19 -8.58,0 -15.58,-5.03 -19.58,-11.62l-0.31 -0.22c-5.29,-5.84 -12.89,-9.53 -21.39,-9.53 -15.94,0 -28.86,12.93 -28.86,28.86 0,7.19 2.69,13.75 7.04,18.8 5.67,4.65 9.31,11.71 9.31,19.6 0,12.56 -9.16,22.96 -21.15,24.96l-0.39 0.06c-1.24,0.18 -2.3,0.17 -3.61,0.17 -0.84,0 -2.02,-0.04 -2.84,0.12 -8.83,1.77 -15.32,9.44 -15.32,18.77 0,10.64 8.62,19.26 19.27,19.26 0.84,0 1.66,-0.07 2.46,-0.18 8.61,58.96 59.38,104.24 120.74,104.24 67.39,0 122.03,-54.64 122.03,-122.05 0,-62.6 -47.12,-114.16 -107.84,-121.2zm45.32 87.79c31.82,0 57.6,25.79 57.6,57.6 0,31.81 -25.79,57.6 -57.6,57.6 -31.81,0 -57.6,-25.79 -57.6,-57.6 0,-31.82 25.79,-57.6 57.6,-57.6zm-90.59 -82.35c0,8.49 -6.89,15.37 -15.38,15.37 -8.49,0 -15.37,-6.88 -15.37,-15.37 0,-8.49 6.87,-15.37 15.37,-15.37 8.49,0 15.38,6.89 15.38,15.37zm-23.38 -47.57c0,3.53 -2.85,6.38 -6.37,6.38 -3.52,0 -6.38,-2.86 -6.38,-6.38 0,-3.53 2.85,-6.38 6.38,-6.38 3.53,0 6.37,2.85 6.37,6.38zm52.55 -0.15c0,6.1 -4.93,11.04 -11.04,11.04 -6.09,0 -11.02,-4.95 -11.02,-11.04 0,-6.1 4.94,-11.04 11.02,-11.04 6.11,0 11.04,4.95 11.04,11.04z"/>
  <path class="fil1" d="M135.17 24.53c0,3.52 -2.85,6.38 -6.37,6.38 -3.53,0 -6.39,-2.86 -6.39,-6.38 0,-3.53 2.85,-6.38 6.39,-6.38 3.52,0 6.37,2.86 6.37,6.38zm-71.13 -17.68c0,3.78 -3.06,6.85 -6.85,6.85 -3.78,0 -6.84,-3.07 -6.84,-6.85 0,-3.78 3.06,-6.85 6.84,-6.85 3.79,0 6.85,3.07 6.85,6.85zm-22.06 52.51c0,3.52 -2.85,6.38 -6.38,6.38 -3.53,0 -6.38,-2.86 -6.38,-6.38 0,-3.53 2.85,-6.39 6.38,-6.39 3.53,0 6.38,2.86 6.38,6.39zm-18.15 41.69c0,3.52 -2.85,6.38 -6.38,6.38 -3.53,0 -6.38,-2.86 -6.38,-6.38 0,-3.53 2.85,-6.38 6.38,-6.38 3.52,0 6.38,2.86 6.38,6.38zm-1.75 48.48c0,6.1 -4.93,11.04 -11.04,11.04 -6.09,0 -11.02,-4.95 -11.02,-11.04 0,-6.1 4.94,-11.04 11.02,-11.04 6.11,0 11.04,4.94 11.04,11.04zm43.13 20.21c0,8.49 -6.88,15.37 -15.37,15.37 -8.49,0 -15.37,-6.89 -15.37,-15.37 0,-8.49 6.87,-15.37 15.37,-15.37 8.49,0 15.37,6.88 15.37,15.37zm2.91 -75.96c0,6.1 -4.94,11.04 -11.04,11.04 -6.09,0 -11.03,-4.95 -11.03,-11.04 0,-6.1 4.94,-11.04 11.03,-11.04 6.1,0 11.04,4.94 11.04,11.04z"/>
  <text x="368.09" y="195.89"  class="fil2 fnt0">КОСМЕТИЧЕСКИЕ </text>
  <text x="368.09" y="336.61"  class="fil2 fnt0">ТЕХНОЛОГИИ</text>
 </g>
</svg>
