<?xml version="1.0" encoding="UTF-8"?>
<!DOCTYPE svg PUBLIC "-//W3C//DTD SVG 1.1//EN" "http://www.w3.org/Graphics/SVG/1.1/DTD/svg11.dtd">
<!-- Creator: CorelDRAW 2018 (64-Bit) -->
<svg xmlns="http://www.w3.org/2000/svg" xml:space="preserve" width="40.5957mm" height="8.4732mm" version="1.1" style="shape-rendering:geometricPrecision; text-rendering:geometricPrecision; image-rendering:optimizeQuality; fill-rule:evenodd; clip-rule:evenodd"
viewBox="0 0 1228.04 256.32"
 xmlns:xlink="http://www.w3.org/1999/xlink">
 <defs>
  <style type="text/css">
   <![CDATA[
    .fil2 {fill:#2C69A7}
    .fil1 {fill:#85C6F1;fill-rule:nonzero}
    .fil0 {fill:#2C69A7;fill-rule:nonzero}
    .fnt0 {font-weight:600;font-size:110.17px;font-family:'Cormorant SC Semibold'}
   ]]>
  </style>
 </defs>
 <g id="Слой_x0020_1">
  <metadata id="CorelCorpID_0Corel-Layer"/>
  <path class="fil0" d="M142.88 72.04l0.03 -0.59c0,-8.06 -6.54,-14.6 -14.6,-14.6 -8.06,0 -14.6,6.53 -14.6,14.6 0,0.54 0.06,1.08 0.11,1.61 0.46,1.53 0.72,3.16 0.72,4.84 0,9.28 -7.53,16.81 -16.81,16.81 -6.5,0 -11.81,-3.81 -14.83,-8.8l-0.23 -0.17c-4.01,-4.42 -9.77,-7.22 -16.2,-7.22 -12.07,0 -21.87,9.8 -21.87,21.87 0,5.45 2.04,10.42 5.34,14.25 4.3,3.52 7.05,8.86 7.05,14.85 0,9.52 -6.94,17.39 -16.02,18.91l-0.29 0.05c-0.94,0.14 -1.75,0.13 -2.74,0.13 -0.64,0 -1.53,-0.03 -2.15,0.09 -6.69,1.34 -11.6,7.15 -11.6,14.22 0,8.05 6.53,14.59 14.6,14.59 0.63,0 1.26,-0.05 1.86,-0.13 6.53,44.67 44.98,78.96 91.47,78.96 51.05,0 92.45,-41.39 92.45,-92.45 0,-47.42 -35.7,-86.48 -81.69,-91.82zm34.33 66.51c24.1,0 43.64,19.53 43.64,43.63 0,24.1 -19.54,43.64 -43.64,43.64 -24.1,0 -43.64,-19.54 -43.64,-43.64 0,-24.1 19.54,-43.63 43.64,-43.63zm-68.63 -62.39c0,6.43 -5.22,11.65 -11.65,11.65 -6.43,0 -11.64,-5.21 -11.64,-11.65 0,-6.43 5.21,-11.64 11.64,-11.64 6.43,0 11.65,5.22 11.65,11.64zm-17.71 -36.04c0,2.67 -2.16,4.84 -4.83,4.84 -2.67,0 -4.83,-2.16 -4.83,-4.84 0,-2.67 2.16,-4.84 4.83,-4.84 2.67,0 4.83,2.16 4.83,4.84zm39.81 -0.11c0,4.62 -3.74,8.36 -8.36,8.36 -4.61,0 -8.35,-3.75 -8.35,-8.36 0,-4.62 3.74,-8.36 8.35,-8.36 4.63,0 8.36,3.75 8.36,8.36z"/>
  <path class="fil1" d="M102.39 18.58c0,2.67 -2.16,4.84 -4.83,4.84 -2.68,0 -4.84,-2.17 -4.84,-4.84 0,-2.67 2.16,-4.84 4.84,-4.84 2.67,0 4.83,2.16 4.83,4.84zm-53.89 -13.39c0,2.86 -2.31,5.19 -5.19,5.19 -2.86,0 -5.18,-2.32 -5.18,-5.19 0,-2.86 2.32,-5.18 5.18,-5.18 2.87,0 5.19,2.32 5.19,5.18zm-16.71 39.78c0,2.67 -2.16,4.84 -4.83,4.84 -2.67,0 -4.83,-2.17 -4.83,-4.84 0,-2.67 2.16,-4.84 4.83,-4.84 2.67,0 4.83,2.16 4.83,4.84zm-13.75 31.58c0,2.67 -2.16,4.84 -4.83,4.84 -2.67,0 -4.83,-2.17 -4.83,-4.84 0,-2.67 2.16,-4.84 4.83,-4.84 2.67,0 4.83,2.17 4.83,4.84zm-1.33 36.73c0,4.62 -3.73,8.36 -8.36,8.36 -4.61,0 -8.35,-3.75 -8.35,-8.36 0,-4.62 3.74,-8.36 8.35,-8.36 4.63,0 8.36,3.74 8.36,8.36zm32.67 15.31c0,6.43 -5.21,11.65 -11.65,11.65 -6.43,0 -11.64,-5.22 -11.64,-11.65 0,-6.43 5.21,-11.65 11.64,-11.65 6.43,0 11.65,5.21 11.65,11.65zm2.2 -57.55c0,4.62 -3.75,8.36 -8.36,8.36 -4.61,0 -8.35,-3.75 -8.35,-8.36 0,-4.62 3.74,-8.36 8.35,-8.36 4.62,0 8.36,3.75 8.36,8.36z"/>
  <text x="278.84" y="148.39"  class="fil2 fnt0">КОСМЕТИЧЕСКИЕ </text>
  <text x="278.84" y="255"  class="fil2 fnt0">ТЕХНОЛОГИИ</text>
 </g>
</svg>
