<svg xmlns="http://www.w3.org/2000/svg" version="1.0" width="1185.000000pt" height="311.000000pt" viewBox="0 0 1185.000000 311.000000" preserveAspectRatio="xMidYMid meet">

<g transform="translate(0.000000,311.000000) scale(0.100000,-0.100000)" fill="#00458b" stroke="none">
<path d="M2017 2392 c-22 -25 -21 -75 1 -95 41 -37 112 -6 112 48 0 55 -77 87 -113 47z" fill="#00458b"/>
<path d="M1734 2366 c-3 -8 -4 -23 -2 -33 5 -25 61 -25 66 0 7 37 -51 67 -64 33z" fill="#00458b"/>
<path d="M2049 2185 c-36 -19 -58 -79 -52 -136 15 -136 -153 -212 -241 -109 -47 56 -93 80 -156 80 -158 0 -230 -175 -123 -299 44 -52 57 -98 43 -150 -19 -72 -76 -121 -140 -121 -68 0 -120 -49 -120 -112 0 -69 31 -108 98 -122 24 -6 33 -14 38 -34 61 -279 252 -495 513 -581 310 -101 667 16 851 280 l44 64 -43 -39 c-24 -21 -69 -50 -100 -65 -48 -22 -69 -26 -146 -26 -75 0 -99 5 -145 26 -106 49 -176 134 -206 248 -21 82 -12 156 27 238 105 219 386 274 566 110 65 -60 108 -141 119 -226 7 -50 9 -53 15 -26 4 17 7 78 8 136 4 354 -232 655 -581 741 -81 19 -86 23 -92 50 -3 16 -19 43 -35 59 -24 23 -38 29 -73 29 -24 -1 -55 -7 -69 -15z" fill="#00458b"/>
<path d="M1789 2111 c-48 -48 -35 -121 27 -147 76 -32 149 34 123 113 -21 64 -101 83 -150 34z" fill="#00458b"/>
<path d="M6550 1989 c0 -35 -3 -75 -5 -89 -3 -15 2 -9 14 16 29 63 73 94 132 94 44 0 51 -3 59 -26 6 -14 10 -125 10 -247 0 -248 -3 -263 -63 -269 -17 -2 27 -3 98 -3 72 0 116 1 98 3 -17 2 -36 9 -42 16 -8 9 -10 95 -9 267 l3 254 45 3 c76 6 113 -25 144 -118 2 -8 5 17 5 57 1 39 4 80 8 90 6 16 5 16 -11 4 -25 -21 -445 -23 -469 -2 -16 12 -17 8 -17 -50z" fill="#00458b"/>
<path d="M4217 2030 c-64 -11 -127 -43 -172 -87 -111 -108 -106 -305 10 -412 61 -56 106 -73 195 -74 127 -1 234 62 287 171 23 46 27 69 26 127 -1 84 -19 130 -76 192 -66 72 -162 102 -270 83z m121 -31 c84 -41 136 -149 136 -279 -1 -114 -40 -192 -116 -231 -183 -93 -361 156 -286 401 34 112 156 162 266 109z" fill="#00458b"/>
<path d="M4923 2030 c-155 -32 -256 -141 -257 -274 -1 -127 59 -222 171 -273 45 -21 72 -26 137 -27 75 0 181 18 190 33 2 3 7 35 11 71 l6 65 -21 -42 c-65 -128 -198 -155 -304 -62 -68 60 -91 122 -91 250 0 100 2 108 30 155 83 135 282 124 358 -21 l16 -30 0 30 c1 17 -2 47 -5 67 -6 33 -11 39 -43 47 -57 16 -152 21 -198 11z" fill="#00458b"/>
<path d="M9133 2030 c-155 -32 -257 -141 -257 -274 0 -129 48 -210 156 -265 59 -30 76 -34 150 -34 77 -1 183 17 192 32 2 3 7 35 11 71 l6 65 -21 -42 c-85 -166 -280 -153 -367 24 -22 47 -28 74 -31 150 -4 85 -2 97 23 148 39 82 86 110 181 110 64 0 77 -3 116 -30 23 -17 53 -49 65 -70 25 -44 28 -35 17 49 -6 43 -9 47 -43 55 -57 16 -152 21 -198 11z" fill="#00458b"/>
<path d="M3400 2022 c50 -7 50 -8 50 -277 0 -269 0 -270 -50 -277 -14 -1 29 -3 94 -3 66 0 105 2 87 6 -17 4 -35 10 -39 14 -11 11 -15 246 -4 257 6 6 22 4 44 -5 27 -11 57 -45 122 -136 48 -66 96 -125 106 -131 10 -5 49 -10 87 -9 55 1 62 2 39 9 -39 12 -77 49 -153 152 -69 94 -105 128 -134 128 -11 0 -19 4 -19 9 0 6 35 55 79 109 79 99 128 140 183 151 16 3 -20 6 -81 6 -60 0 -102 -3 -91 -7 10 -4 21 -11 24 -17 10 -16 -19 -76 -79 -162 -54 -76 -58 -79 -96 -79 l-39 0 0 108 c0 120 11 148 58 154 15 2 -27 3 -93 3 -66 0 -109 -2 -95 -3z" fill="#00458b"/>
<path d="M5283 2019 c15 -4 36 -18 47 -31 19 -22 20 -34 14 -233 -3 -115 -10 -223 -16 -239 -7 -15 -24 -33 -38 -40 -23 -9 -13 -11 64 -11 50 -1 81 2 69 5 -13 3 -32 13 -43 22 -19 17 -20 29 -20 218 0 110 3 200 8 200 4 0 57 -99 117 -220 60 -121 113 -219 118 -217 5 1 49 97 99 212 49 116 94 214 99 220 5 5 9 -2 9 -20 0 -17 5 -108 10 -203 11 -190 7 -209 -37 -214 -16 -2 24 -3 87 -3 63 0 103 1 88 3 -14 2 -32 9 -38 17 -11 13 -29 263 -30 417 0 63 4 91 15 101 13 13 10 15 -23 20 -20 2 -42 0 -48 -5 -6 -4 -51 -99 -99 -211 -49 -111 -91 -205 -95 -210 -3 -4 -55 87 -114 203 -59 115 -112 213 -119 217 -6 4 -43 7 -82 8 -47 1 -61 -1 -42 -6z" fill="#00458b"/>
<path d="M5938 2023 c6 -2 18 -2 25 0 6 3 1 5 -13 5 -14 0 -19 -2 -12 -5z" fill="#00458b"/>
<path d="M6060 2023 c50 -10 50 -9 50 -278 0 -269 0 -268 -50 -278 -14 -2 66 -5 178 -6 l202 -1 0 48 c0 26 3 58 6 72 4 22 3 21 -10 -5 -34 -67 -81 -95 -163 -95 -77 0 -78 2 -81 146 l-4 126 75 -4 c56 -2 81 -8 96 -22 l21 -19 0 51 0 52 -20 -20 c-16 -16 -33 -20 -95 -20 l-75 0 0 98 c0 125 10 142 82 142 65 0 109 -22 136 -68 l22 -37 0 63 0 62 -197 -1 c-109 -1 -187 -4 -173 -6z" fill="#00458b"/>
<path d="M7130 2022 c50 -7 50 -8 50 -277 0 -269 0 -270 -50 -277 -14 -1 28 -3 93 -3 65 0 104 3 87 6 -40 8 -41 10 -46 56 -5 36 -1 42 77 123 45 47 116 120 157 163 41 42 76 77 79 77 7 0 -1 -398 -9 -405 -4 -4 -21 -10 -38 -14 -17 -3 22 -6 87 -6 65 0 107 2 93 3 -50 7 -50 8 -50 277 0 269 0 270 50 277 14 1 -28 3 -93 3 -65 0 -104 -3 -87 -6 40 -8 41 -10 46 -56 5 -37 2 -41 -148 -198 -84 -88 -156 -161 -160 -163 -4 -2 -8 81 -8 185 0 207 5 229 58 235 15 2 -27 3 -93 3 -66 0 -109 -2 -95 -3z" fill="#00458b"/>
<path d="M7778 2023 c7 -3 16 -2 19 1 4 3 -2 6 -13 5 -11 0 -14 -3 -6 -6z" fill="#00458b"/>
<path d="M7948 2023 c6 -2 18 -2 25 0 6 3 1 5 -13 5 -14 0 -19 -2 -12 -5z" fill="#00458b"/>
<path d="M8103 2022 c39 -5 47 -33 47 -159 0 -86 -3 -110 -17 -125 -16 -18 -16 -18 0 -12 15 6 17 -5 17 -108 0 -126 -7 -145 -55 -150 -16 -2 24 -3 90 -3 66 0 109 2 95 3 -50 7 -50 8 -50 277 0 269 0 270 50 277 14 1 -27 3 -90 3 -63 0 -102 -1 -87 -3z" fill="#00458b"/>
<path d="M8400 2023 c50 -10 50 -9 50 -278 0 -269 0 -268 -50 -278 -14 -2 66 -5 178 -6 l202 -1 0 48 c0 26 3 58 6 72 3 15 -4 8 -17 -18 -28 -55 -78 -82 -151 -82 -82 0 -83 1 -86 146 l-4 126 75 -4 c77 -3 111 -19 120 -57 2 -9 3 -3 1 13 -2 16 -4 46 -4 67 l0 39 -20 -20 c-16 -16 -33 -20 -95 -20 l-75 0 0 98 c0 132 9 146 96 140 68 -4 91 -18 125 -73 l19 -30 0 63 0 62 -197 -1 c-109 -1 -187 -4 -173 -6z" fill="#00458b"/>
<path d="M9490 2022 c50 -7 50 -8 50 -277 0 -269 0 -270 -50 -277 -14 -1 29 -3 94 -3 66 0 105 2 87 6 -17 4 -35 10 -39 14 -11 11 -15 246 -4 257 6 6 22 4 44 -5 25 -11 53 -40 98 -103 35 -49 79 -108 98 -131 l34 -43 77 1 c61 1 70 3 46 10 -38 11 -81 55 -165 167 -40 53 -79 94 -100 105 -19 10 -34 23 -32 29 8 30 151 194 191 220 l45 28 -50 0 c-27 0 -67 3 -89 5 -31 4 -35 3 -19 -4 12 -5 25 -14 28 -20 10 -16 -19 -76 -79 -162 -54 -76 -58 -79 -96 -79 l-39 0 0 108 c0 120 11 148 58 154 15 2 -27 3 -93 3 -66 0 -109 -2 -95 -3z" fill="#00458b"/>
<path d="M9978 2023 c6 -2 18 -2 25 0 6 3 1 5 -13 5 -14 0 -19 -2 -12 -5z" fill="#00458b"/>
<path d="M10090 2022 c50 -7 50 -8 50 -277 0 -269 0 -270 -50 -277 -14 -1 28 -3 93 -3 65 0 104 3 87 6 -40 8 -41 10 -46 56 -5 36 -1 42 72 118 43 44 113 117 157 163 44 45 81 82 84 82 7 0 -1 -398 -9 -405 -4 -4 -21 -10 -38 -14 -17 -3 22 -6 87 -6 65 0 107 2 93 3 -50 7 -50 8 -50 277 0 269 0 270 50 277 14 1 -28 3 -93 3 -65 0 -104 -3 -87 -6 41 -9 43 -12 44 -58 1 -37 -7 -48 -144 -194 -80 -85 -150 -156 -157 -156 -8 -1 -12 48 -13 180 -1 200 5 225 57 231 16 2 -26 3 -92 3 -66 0 -109 -2 -95 -3z" fill="#00458b"/>
<path d="M10790 2023 c50 -10 50 -9 50 -278 0 -269 0 -268 -50 -278 -14 -2 66 -5 178 -6 l202 -1 0 48 c0 26 3 58 5 72 l6 25 -11 -25 c-29 -65 -86 -100 -164 -100 -79 0 -88 16 -84 156 l3 109 71 0 c57 0 76 -4 93 -19 l21 -19 0 51 0 52 -20 -20 c-16 -16 -33 -20 -95 -20 l-75 0 0 98 c0 125 10 142 82 142 65 0 109 -22 136 -68 l22 -37 0 63 0 62 -197 -1 c-109 -1 -187 -4 -173 -6z" fill="#00458b"/>
<path d="M7818 2008 c8 -8 12 -46 12 -107 0 -146 37 -203 142 -217 45 -6 123 9 133 26 4 6 -4 6 -20 0 -83 -31 -145 3 -164 91 -14 62 -14 159 -1 193 l10 26 -62 0 c-48 0 -59 -3 -50 -12z" fill="#00458b"/>
<path d="M6381 1684 c0 -11 3 -14 6 -6 3 7 2 16 -1 19 -3 4 -6 -2 -5 -13z" fill="#00458b"/>
<path d="M11111 1684 c0 -11 3 -14 6 -6 3 7 2 16 -1 19 -3 4 -6 -2 -5 -13z" fill="#00458b"/>
<path d="M3400 1109 c0 -35 -3 -75 -5 -89 -3 -15 2 -9 14 16 29 63 73 94 132 94 44 0 51 -3 59 -26 6 -14 10 -125 10 -247 0 -248 -3 -263 -63 -269 -17 -2 27 -3 98 -3 72 0 116 1 98 3 -17 2 -36 9 -42 16 -8 9 -10 95 -9 267 l3 254 44 3 c77 6 116 -24 142 -108 5 -17 8 -3 8 47 1 39 4 80 8 90 6 16 5 16 -11 4 -25 -21 -445 -23 -469 -2 -16 12 -17 8 -17 -50z" fill="#00458b"/>
<path d="M6004 1150 c-103 -22 -199 -96 -231 -178 -41 -107 -10 -246 72 -321 61 -56 106 -73 195 -74 127 -1 234 62 287 171 36 74 37 173 4 244 -57 120 -194 186 -327 158z m124 -31 c84 -41 136 -149 136 -279 -1 -142 -70 -239 -178 -248 -170 -14 -288 206 -224 418 34 112 156 162 266 109z" fill="#00458b"/>
<path d="M7271 1150 c-100 -21 -187 -87 -224 -169 -45 -99 -17 -250 61 -327 106 -107 300 -104 425 5 120 106 122 308 4 422 -60 59 -174 88 -266 69z m113 -24 c91 -38 149 -147 149 -281 1 -119 -37 -196 -115 -236 -74 -38 -163 -16 -225 55 -88 99 -103 306 -30 410 40 57 148 83 221 52z" fill="#00458b"/>
<path d="M3990 1143 c50 -10 50 -9 50 -278 0 -269 0 -268 -50 -278 -14 -2 66 -5 178 -6 l202 -1 0 48 c0 26 3 58 5 72 l6 25 -11 -25 c-29 -65 -86 -100 -164 -100 -79 0 -88 16 -84 156 l3 109 71 0 c57 0 76 -4 93 -19 l21 -19 0 51 0 52 -20 -20 c-16 -16 -33 -20 -95 -20 l-75 0 0 98 c0 125 10 142 82 142 65 0 109 -22 136 -68 l22 -37 0 63 0 62 -197 -1 c-109 -1 -187 -4 -173 -6z" fill="#00458b"/>
<path d="M4479 1134 c14 -6 34 -20 43 -31 20 -22 168 -251 168 -260 0 -3 -34 -51 -75 -107 -75 -102 -107 -133 -151 -145 -13 -3 20 -6 73 -6 54 -1 86 2 73 5 -43 11 -32 64 30 154 30 42 57 76 61 76 7 0 139 -203 139 -214 0 -4 -9 -10 -21 -14 -12 -5 23 -8 84 -8 100 1 103 2 70 15 -27 11 -51 39 -119 142 -47 71 -87 135 -90 143 -7 17 108 178 159 221 22 19 49 35 61 37 11 2 -23 3 -78 3 -71 1 -91 -2 -71 -8 24 -8 27 -13 22 -43 -5 -27 -100 -184 -112 -184 -5 0 -135 207 -135 214 0 4 10 10 21 15 13 4 -18 7 -78 7 -83 -1 -96 -3 -74 -12z" fill="#00458b"/>
<path d="M5070 1142 c50 -7 50 -8 50 -277 0 -269 0 -270 -50 -277 -14 -1 28 -3 93 -3 65 0 104 3 87 6 -17 4 -34 10 -38 14 -4 3 -7 64 -7 133 l0 127 163 3 162 2 0 -118 c0 -131 -10 -158 -58 -164 -15 -2 27 -3 93 -3 66 0 109 2 95 3 -50 7 -50 8 -50 277 0 269 0 270 50 277 14 1 -28 3 -93 3 -65 0 -104 -3 -87 -6 17 -4 34 -10 38 -14 4 -3 9 -58 10 -121 l4 -114 -166 0 -166 0 0 103 c0 115 11 143 58 149 15 2 -27 3 -93 3 -66 0 -109 -2 -95 -3z" fill="#00458b"/>
<path d="M6486 1143 c17 -2 42 -15 55 -29 23 -24 24 -33 24 -142 -1 -205 -47 -321 -127 -322 -42 0 -58 -10 -58 -36 0 -60 100 -47 140 18 36 59 51 129 62 303 6 94 16 176 21 183 14 18 171 17 186 -2 13 -16 12 -498 -1 -511 -4 -4 -22 -10 -39 -14 -18 -4 21 -6 87 -6 65 0 108 2 94 3 -50 7 -50 8 -50 277 0 269 0 268 50 278 14 2 -87 4 -225 4 -137 0 -236 -2 -219 -4z" fill="#00458b"/>
<path d="M7740 1143 c50 -10 50 -9 50 -278 0 -269 0 -270 -50 -277 -14 -1 36 -3 110 -3 74 0 115 2 91 6 -70 9 -71 12 -71 269 0 270 0 270 88 270 73 0 116 -25 142 -83 l20 -42 0 73 0 72 -202 -1 c-112 -1 -192 -4 -178 -6z" fill="#00458b"/>
<path d="M8200 1142 c50 -7 50 -8 50 -277 0 -269 0 -270 -50 -277 -14 -1 29 -3 95 -3 66 0 108 1 93 3 -15 2 -35 13 -43 25 -29 42 -19 68 63 153 42 44 112 117 154 163 55 58 80 78 84 68 8 -21 1 -384 -8 -392 -4 -4 -21 -10 -38 -14 -17 -3 22 -6 87 -6 65 0 107 2 93 3 -50 7 -50 8 -50 277 0 269 0 270 50 277 14 1 -28 3 -93 3 -65 0 -104 -3 -87 -6 40 -8 41 -10 46 -56 5 -42 23 -20 -230 -282 l-81 -83 -3 187 c-3 207 3 231 55 237 16 2 -26 3 -92 3 -66 0 -109 -2 -95 -3z" fill="#00458b"/>
<path d="M8880 1142 c50 -7 50 -8 50 -277 0 -269 0 -270 -50 -277 -14 -1 28 -3 93 -3 65 0 104 3 87 6 -40 8 -41 10 -46 56 -4 36 -1 42 77 123 45 47 115 120 155 163 41 42 77 77 80 77 8 0 0 -397 -8 -405 -4 -4 -21 -10 -38 -14 -17 -3 22 -6 87 -6 65 0 107 2 93 3 -50 7 -50 8 -50 277 0 269 0 270 50 277 14 1 -29 3 -95 3 -66 0 -108 -1 -93 -3 32 -4 58 -36 58 -70 0 -16 -45 -72 -152 -186 -84 -90 -156 -161 -160 -159 -5 2 -8 86 -8 186 0 201 6 223 58 229 15 2 -27 3 -93 3 -66 0 -109 -2 -95 -3z" fill="#00458b"/>
<path d="M4311 804 c0 -11 3 -14 6 -6 3 7 2 16 -1 19 -3 4 -6 -2 -5 -13z" fill="#00458b"/>
</g>
</svg>