<?xml version="1.0" encoding="UTF-8"?>
<svg xmlns="http://www.w3.org/2000/svg" xmlns:xlink="http://www.w3.org/1999/xlink" width="230px" height="60px" viewBox="0 0 228 60" version="1.1">
<g id="surface1">
<path style=" stroke:none;fill-rule:nonzero;fill:rgb(0%,0%,0%);fill-opacity:1;" d="M 38.816406 13.84375 C 38.390625 14.324219 38.410156 15.289062 38.832031 15.675781 C 39.621094 16.386719 40.988281 15.789062 40.988281 14.75 C 40.988281 13.6875 39.507812 13.070312 38.816406 13.84375 Z M 38.816406 13.84375 "/>
<path style=" stroke:none;fill-rule:nonzero;fill:rgb(0%,0%,0%);fill-opacity:1;" d="M 33.367188 14.34375 C 33.3125 14.5 33.292969 14.789062 33.332031 14.980469 C 33.425781 15.460938 34.503906 15.460938 34.601562 14.980469 C 34.734375 14.265625 33.617188 13.6875 33.367188 14.34375 Z M 33.367188 14.34375 "/>
<path style=" stroke:none;fill-rule:nonzero;fill:rgb(0%,0%,0%);fill-opacity:1;" d="M 39.429688 17.835938 C 38.738281 18.199219 38.3125 19.355469 38.429688 20.457031 C 38.71875 23.078125 35.484375 24.542969 33.792969 22.558594 C 32.886719 21.476562 32.003906 21.015625 30.789062 21.015625 C 27.75 21.015625 26.363281 24.390625 28.421875 26.78125 C 29.269531 27.78125 29.519531 28.667969 29.25 29.671875 C 28.886719 31.058594 27.789062 32.003906 26.554688 32.003906 C 25.246094 32.003906 24.246094 32.949219 24.246094 34.164062 C 24.246094 35.496094 24.84375 36.246094 26.132812 36.515625 C 26.59375 36.632812 26.769531 36.785156 26.863281 37.171875 C 28.039062 42.550781 31.714844 46.714844 36.734375 48.375 C 42.703125 50.320312 49.570312 48.066406 53.113281 42.976562 L 53.960938 41.742188 L 53.132812 42.492188 C 52.671875 42.898438 51.804688 43.457031 51.207031 43.746094 C 50.285156 44.171875 49.878906 44.25 48.398438 44.25 C 46.953125 44.25 46.492188 44.152344 45.609375 43.746094 C 43.566406 42.800781 42.222656 41.164062 41.644531 38.964844 C 41.238281 37.382812 41.414062 35.957031 42.164062 34.375 C 44.183594 30.152344 49.589844 29.09375 53.054688 32.253906 C 54.304688 33.414062 55.132812 34.972656 55.34375 36.613281 C 55.480469 37.578125 55.519531 37.636719 55.632812 37.113281 C 55.710938 36.785156 55.769531 35.609375 55.789062 34.492188 C 55.863281 27.667969 51.324219 21.863281 44.605469 20.207031 C 43.046875 19.839844 42.953125 19.761719 42.835938 19.242188 C 42.777344 18.933594 42.472656 18.414062 42.164062 18.105469 C 41.703125 17.660156 41.433594 17.546875 40.757812 17.546875 C 40.296875 17.5625 39.699219 17.679688 39.429688 17.835938 Z M 39.429688 17.835938 "/>
<path style=" stroke:none;fill-rule:nonzero;fill:rgb(0%,0%,0%);fill-opacity:1;" d="M 34.425781 19.261719 C 33.503906 20.1875 33.753906 21.59375 34.945312 22.09375 C 36.410156 22.710938 37.8125 21.441406 37.3125 19.917969 C 36.910156 18.683594 35.371094 18.316406 34.425781 19.261719 Z M 34.425781 19.261719 "/>
<path style=" stroke:none;fill-rule:nonzero;fill:rgb(0%,0%,0%);fill-opacity:1;" d="M 126.046875 21.613281 C 126.046875 22.289062 125.988281 23.058594 125.949219 23.328125 C 125.894531 23.617188 125.988281 23.503906 126.21875 23.019531 C 126.777344 21.804688 127.625 21.207031 128.761719 21.207031 C 129.605469 21.207031 129.742188 21.265625 129.894531 21.710938 C 130.011719 21.980469 130.085938 24.121094 130.085938 26.472656 C 130.085938 31.253906 130.03125 31.542969 128.875 31.65625 C 128.546875 31.695312 129.394531 31.714844 130.761719 31.714844 C 132.148438 31.714844 132.992188 31.695312 132.648438 31.65625 C 132.320312 31.621094 131.953125 31.484375 131.839844 31.351562 C 131.683594 31.175781 131.648438 29.519531 131.664062 26.203125 L 131.722656 21.304688 L 132.589844 21.246094 C 134.050781 21.132812 134.765625 21.730469 135.359375 23.523438 C 135.398438 23.675781 135.457031 23.195312 135.457031 22.421875 C 135.476562 21.671875 135.535156 20.878906 135.609375 20.6875 C 135.726562 20.378906 135.707031 20.378906 135.398438 20.609375 C 134.917969 21.015625 126.835938 21.054688 126.375 20.648438 C 126.066406 20.417969 126.046875 20.496094 126.046875 21.613281 Z M 126.046875 21.613281 "/>
<path style=" stroke:none;fill-rule:nonzero;fill:rgb(0%,0%,0%);fill-opacity:1;" d="M 81.152344 20.824219 C 79.917969 21.035156 78.707031 21.652344 77.839844 22.5 C 75.703125 24.582031 75.800781 28.378906 78.035156 30.445312 C 79.207031 31.523438 80.074219 31.851562 81.785156 31.871094 C 84.230469 31.890625 86.289062 30.675781 87.308594 28.574219 C 87.75 27.6875 87.828125 27.242188 87.808594 26.125 C 87.789062 24.503906 87.445312 23.617188 86.347656 22.421875 C 85.078125 21.035156 83.230469 20.457031 81.152344 20.824219 Z M 83.480469 21.421875 C 85.097656 22.210938 86.097656 24.292969 86.097656 26.800781 C 86.078125 28.996094 85.328125 30.5 83.863281 31.253906 C 80.34375 33.046875 76.917969 28.246094 78.359375 23.523438 C 79.015625 21.363281 81.363281 20.398438 83.480469 21.421875 Z M 83.480469 21.421875 "/>
<path style=" stroke:none;fill-rule:nonzero;fill:rgb(0%,0%,0%);fill-opacity:1;" d="M 94.738281 20.824219 C 91.753906 21.441406 89.8125 23.542969 89.792969 26.105469 C 89.773438 28.554688 90.925781 30.386719 93.082031 31.367188 C 93.949219 31.773438 94.46875 31.871094 95.71875 31.890625 C 97.160156 31.890625 99.203125 31.542969 99.375 31.253906 C 99.414062 31.195312 99.507812 30.578125 99.585938 29.882812 L 99.703125 28.632812 L 99.296875 29.441406 C 98.046875 31.910156 95.488281 32.429688 93.449219 30.636719 C 92.140625 29.480469 91.695312 28.285156 91.695312 25.816406 C 91.695312 23.886719 91.734375 23.734375 92.273438 22.828125 C 93.871094 20.226562 97.699219 20.4375 99.164062 23.234375 L 99.472656 23.8125 L 99.472656 23.234375 C 99.488281 22.90625 99.433594 22.328125 99.375 21.941406 C 99.257812 21.304688 99.164062 21.1875 98.546875 21.035156 C 97.449219 20.726562 95.621094 20.628906 94.738281 20.824219 Z M 94.738281 20.824219 "/>
<path style=" stroke:none;fill-rule:nonzero;fill:rgb(0%,0%,0%);fill-opacity:1;" d="M 175.753906 20.824219 C 172.769531 21.441406 170.808594 23.542969 170.808594 26.105469 C 170.808594 28.59375 171.730469 30.152344 173.808594 31.214844 C 174.945312 31.792969 175.273438 31.871094 176.695312 31.871094 C 178.179688 31.890625 180.21875 31.542969 180.390625 31.253906 C 180.429688 31.195312 180.527344 30.578125 180.601562 29.882812 L 180.71875 28.632812 L 180.3125 29.441406 C 178.679688 32.640625 174.925781 32.390625 173.25 28.976562 C 172.828125 28.070312 172.710938 27.550781 172.65625 26.085938 C 172.578125 24.449219 172.617188 24.214844 173.097656 23.234375 C 173.847656 21.652344 174.753906 21.113281 176.582031 21.113281 C 177.8125 21.113281 178.0625 21.167969 178.8125 21.691406 C 179.253906 22.019531 179.832031 22.636719 180.0625 23.039062 C 180.542969 23.886719 180.601562 23.714844 180.390625 22.09375 C 180.277344 21.265625 180.21875 21.1875 179.5625 21.035156 C 178.464844 20.726562 176.636719 20.628906 175.753906 20.824219 Z M 175.753906 20.824219 "/>
<path style=" stroke:none;fill-rule:nonzero;fill:rgb(0%,0%,0%);fill-opacity:1;" d="M 65.429688 20.976562 C 66.390625 21.113281 66.390625 21.132812 66.390625 26.316406 C 66.390625 31.503906 66.390625 31.523438 65.429688 31.65625 C 65.160156 31.675781 65.988281 31.714844 67.238281 31.714844 C 68.507812 31.714844 69.257812 31.675781 68.910156 31.601562 C 68.585938 31.523438 68.238281 31.40625 68.160156 31.332031 C 67.949219 31.117188 67.871094 26.585938 68.085938 26.375 C 68.199219 26.257812 68.507812 26.296875 68.929688 26.472656 C 69.449219 26.683594 70.027344 27.339844 71.277344 29.09375 C 72.203125 30.367188 73.125 31.503906 73.320312 31.621094 C 73.511719 31.714844 74.261719 31.8125 74.992188 31.792969 C 76.050781 31.773438 76.1875 31.753906 75.742188 31.621094 C 74.992188 31.386719 74.261719 30.675781 72.800781 28.6875 C 71.472656 26.875 70.777344 26.222656 70.21875 26.222656 C 70.007812 26.222656 69.855469 26.144531 69.855469 26.046875 C 69.855469 25.933594 70.527344 24.988281 71.375 23.945312 C 72.894531 22.039062 73.839844 21.246094 74.898438 21.035156 C 75.203125 20.976562 74.511719 20.917969 73.339844 20.917969 C 72.183594 20.917969 71.375 20.976562 71.585938 21.054688 C 71.777344 21.132812 71.992188 21.265625 72.046875 21.382812 C 72.242188 21.691406 71.683594 22.847656 70.527344 24.503906 C 69.488281 25.96875 69.414062 26.027344 68.679688 26.027344 L 67.929688 26.027344 L 67.929688 23.945312 C 67.929688 21.632812 68.140625 21.09375 69.046875 20.976562 C 69.335938 20.9375 68.527344 20.917969 67.257812 20.917969 C 65.988281 20.917969 65.160156 20.957031 65.429688 20.976562 Z M 65.429688 20.976562 "/>
<path style=" stroke:none;fill-rule:nonzero;fill:rgb(0%,0%,0%);fill-opacity:1;" d="M 101.664062 21.035156 C 101.953125 21.113281 102.359375 21.382812 102.570312 21.632812 C 102.933594 22.054688 102.953125 22.289062 102.839844 26.125 C 102.78125 28.34375 102.644531 30.425781 102.53125 30.734375 C 102.394531 31.023438 102.070312 31.367188 101.800781 31.503906 C 101.355469 31.675781 101.550781 31.714844 103.03125 31.714844 C 103.992188 31.734375 104.589844 31.675781 104.359375 31.621094 C 104.109375 31.5625 103.742188 31.367188 103.53125 31.195312 C 103.164062 30.867188 103.148438 30.636719 103.148438 26.992188 C 103.148438 24.871094 103.203125 23.136719 103.300781 23.136719 C 103.378906 23.136719 104.398438 25.046875 105.550781 27.378906 C 106.707031 29.710938 107.726562 31.601562 107.824219 31.5625 C 107.917969 31.542969 108.765625 29.691406 109.726562 27.472656 C 110.671875 25.238281 111.535156 23.347656 111.632812 23.234375 C 111.730469 23.136719 111.804688 23.269531 111.804688 23.617188 C 111.804688 23.945312 111.902344 25.699219 112 27.53125 C 112.210938 31.195312 112.132812 31.5625 111.285156 31.65625 C 110.980469 31.695312 111.75 31.714844 112.960938 31.714844 C 114.171875 31.714844 114.941406 31.695312 114.652344 31.65625 C 114.386719 31.621094 114.039062 31.484375 113.921875 31.332031 C 113.710938 31.078125 113.363281 26.257812 113.347656 23.289062 C 113.347656 22.074219 113.421875 21.535156 113.632812 21.34375 C 113.882812 21.09375 113.828125 21.054688 113.191406 20.957031 C 112.808594 20.917969 112.382812 20.957031 112.269531 21.054688 C 112.152344 21.132812 111.285156 22.960938 110.363281 25.121094 C 109.421875 27.261719 108.613281 29.074219 108.535156 29.171875 C 108.476562 29.25 107.476562 27.492188 106.339844 25.257812 C 105.207031 23.039062 104.1875 21.148438 104.050781 21.074219 C 103.933594 20.996094 103.222656 20.9375 102.472656 20.917969 C 101.570312 20.898438 101.300781 20.9375 101.664062 21.035156 Z M 101.664062 21.035156 "/>
<path style=" stroke:none;fill-rule:nonzero;fill:rgb(0%,0%,0%);fill-opacity:1;" d="M 114.269531 20.957031 C 114.386719 20.996094 114.617188 20.996094 114.75 20.957031 C 114.867188 20.898438 114.769531 20.859375 114.5 20.859375 C 114.230469 20.859375 114.132812 20.898438 114.269531 20.957031 Z M 114.269531 20.957031 "/>
<path style=" stroke:none;fill-rule:nonzero;fill:rgb(0%,0%,0%);fill-opacity:1;" d="M 116.617188 20.957031 C 117.578125 21.148438 117.578125 21.132812 117.578125 26.316406 C 117.578125 31.503906 117.578125 31.484375 116.617188 31.675781 C 116.347656 31.714844 117.886719 31.773438 120.042969 31.792969 L 123.929688 31.8125 L 123.929688 30.886719 C 123.929688 30.386719 123.988281 29.769531 124.046875 29.5 C 124.121094 29.074219 124.101562 29.09375 123.851562 29.59375 C 123.199219 30.886719 122.292969 31.425781 120.714844 31.425781 C 119.234375 31.425781 119.214844 31.386719 119.15625 28.613281 L 119.082031 26.183594 L 120.523438 26.257812 C 121.601562 26.296875 122.082031 26.414062 122.371094 26.683594 L 122.773438 27.050781 L 122.773438 25.0625 L 122.390625 25.449219 C 122.082031 25.757812 121.753906 25.835938 120.5625 25.835938 L 119.117188 25.835938 L 119.117188 23.945312 C 119.117188 21.535156 119.3125 21.207031 120.695312 21.207031 C 121.949219 21.207031 122.792969 21.632812 123.3125 22.519531 L 123.738281 23.234375 L 123.738281 20.824219 L 119.945312 20.84375 C 117.847656 20.859375 116.347656 20.917969 116.617188 20.957031 Z M 116.617188 20.957031 "/>
<path style=" stroke:none;fill-rule:nonzero;fill:rgb(0%,0%,0%);fill-opacity:1;" d="M 137.207031 20.976562 C 138.171875 21.113281 138.171875 21.132812 138.171875 26.316406 C 138.171875 31.503906 138.171875 31.523438 137.207031 31.65625 C 136.9375 31.675781 137.746094 31.714844 138.996094 31.714844 C 140.25 31.714844 141 31.65625 140.671875 31.601562 C 139.902344 31.445312 139.882812 31.40625 139.785156 30.519531 C 139.691406 29.828125 139.765625 29.710938 141.269531 28.148438 C 142.132812 27.242188 143.5 25.835938 144.289062 25.007812 C 145.078125 24.195312 145.753906 23.523438 145.808594 23.523438 C 145.945312 23.523438 145.789062 31.195312 145.636719 31.332031 C 145.558594 31.40625 145.234375 31.523438 144.90625 31.601562 C 144.578125 31.65625 145.328125 31.714844 146.578125 31.714844 C 147.832031 31.714844 148.640625 31.675781 148.371094 31.65625 C 147.40625 31.523438 147.40625 31.503906 147.40625 26.316406 C 147.40625 21.132812 147.40625 21.113281 148.371094 20.976562 C 148.640625 20.957031 147.832031 20.917969 146.578125 20.917969 C 145.328125 20.917969 144.578125 20.976562 144.90625 21.035156 C 145.675781 21.1875 145.695312 21.226562 145.789062 22.113281 C 145.886719 22.828125 145.828125 22.90625 142.941406 25.933594 C 141.324219 27.628906 139.941406 29.035156 139.863281 29.074219 C 139.785156 29.113281 139.710938 27.511719 139.710938 25.507812 C 139.710938 21.515625 139.804688 21.09375 140.824219 20.976562 C 141.113281 20.9375 140.304688 20.917969 139.035156 20.917969 C 137.765625 20.917969 136.9375 20.957031 137.207031 20.976562 Z M 137.207031 20.976562 "/>
<path style=" stroke:none;fill-rule:nonzero;fill:rgb(0%,0%,0%);fill-opacity:1;" d="M 149.679688 20.957031 C 149.8125 21.015625 149.984375 20.996094 150.042969 20.9375 C 150.121094 20.878906 150.003906 20.824219 149.792969 20.84375 C 149.582031 20.84375 149.523438 20.898438 149.679688 20.957031 Z M 149.679688 20.957031 "/>
<path style=" stroke:none;fill-rule:nonzero;fill:rgb(0%,0%,0%);fill-opacity:1;" d="M 152.949219 20.957031 C 153.066406 20.996094 153.296875 20.996094 153.429688 20.957031 C 153.546875 20.898438 153.449219 20.859375 153.179688 20.859375 C 152.910156 20.859375 152.816406 20.898438 152.949219 20.957031 Z M 152.949219 20.957031 "/>
<path style=" stroke:none;fill-rule:nonzero;fill:rgb(0%,0%,0%);fill-opacity:1;" d="M 155.933594 20.976562 C 156.683594 21.074219 156.835938 21.613281 156.835938 24.042969 C 156.835938 25.699219 156.777344 26.164062 156.507812 26.453125 C 156.203125 26.800781 156.203125 26.800781 156.507812 26.683594 C 156.796875 26.566406 156.835938 26.78125 156.835938 28.765625 C 156.835938 31.195312 156.703125 31.5625 155.777344 31.65625 C 155.46875 31.695312 156.238281 31.714844 157.511719 31.714844 C 158.78125 31.714844 159.609375 31.675781 159.339844 31.65625 C 158.375 31.523438 158.375 31.503906 158.375 26.316406 C 158.375 21.132812 158.375 21.113281 159.339844 20.976562 C 159.609375 20.957031 158.820312 20.917969 157.605469 20.917969 C 156.394531 20.917969 155.644531 20.9375 155.933594 20.976562 Z M 155.933594 20.976562 "/>
<path style=" stroke:none;fill-rule:nonzero;fill:rgb(0%,0%,0%);fill-opacity:1;" d="M 161.648438 20.957031 C 162.609375 21.148438 162.609375 21.132812 162.609375 26.316406 C 162.609375 31.503906 162.609375 31.484375 161.648438 31.675781 C 161.378906 31.714844 162.917969 31.773438 165.074219 31.792969 L 168.960938 31.8125 L 168.960938 30.886719 C 168.960938 30.386719 169.019531 29.769531 169.074219 29.5 C 169.132812 29.210938 169 29.34375 168.75 29.847656 C 168.210938 30.90625 167.246094 31.425781 165.84375 31.425781 C 164.265625 31.425781 164.246094 31.40625 164.1875 28.613281 L 164.109375 26.183594 L 165.554688 26.257812 C 167.035156 26.316406 167.691406 26.625 167.863281 27.359375 C 167.902344 27.53125 167.921875 27.417969 167.882812 27.109375 C 167.84375 26.800781 167.804688 26.222656 167.804688 25.816406 L 167.804688 25.0625 L 167.421875 25.449219 C 167.113281 25.757812 166.785156 25.835938 165.59375 25.835938 L 164.148438 25.835938 L 164.148438 23.945312 C 164.148438 21.402344 164.324219 21.132812 165.996094 21.246094 C 167.304688 21.324219 167.746094 21.59375 168.402344 22.652344 L 168.769531 23.234375 L 168.769531 20.824219 L 164.976562 20.84375 C 162.878906 20.859375 161.378906 20.917969 161.648438 20.957031 Z M 161.648438 20.957031 "/>
<path style=" stroke:none;fill-rule:nonzero;fill:rgb(0%,0%,0%);fill-opacity:1;" d="M 182.625 20.976562 C 183.585938 21.113281 183.585938 21.132812 183.585938 26.316406 C 183.585938 31.503906 183.585938 31.523438 182.625 31.65625 C 182.355469 31.675781 183.179688 31.714844 184.433594 31.714844 C 185.703125 31.714844 186.453125 31.675781 186.105469 31.601562 C 185.777344 31.523438 185.433594 31.40625 185.355469 31.332031 C 185.144531 31.117188 185.066406 26.585938 185.277344 26.375 C 185.394531 26.257812 185.703125 26.296875 186.125 26.472656 C 186.605469 26.683594 187.144531 27.242188 188.011719 28.457031 C 188.683594 29.402344 189.53125 30.539062 189.898438 30.984375 L 190.550781 31.8125 L 192.035156 31.792969 C 193.207031 31.773438 193.378906 31.734375 192.917969 31.601562 C 192.1875 31.386719 191.359375 30.539062 189.742188 28.378906 C 188.972656 27.359375 188.222656 26.566406 187.820312 26.355469 C 187.453125 26.164062 187.164062 25.914062 187.203125 25.796875 C 187.355469 25.21875 190.109375 22.054688 190.878906 21.554688 L 191.746094 21.015625 L 190.78125 21.015625 C 190.261719 21.015625 189.492188 20.957031 189.070312 20.917969 C 188.472656 20.84375 188.394531 20.859375 188.703125 20.996094 C 188.933594 21.09375 189.183594 21.265625 189.242188 21.382812 C 189.433594 21.691406 188.878906 22.847656 187.722656 24.503906 C 186.683594 25.96875 186.605469 26.027344 185.875 26.027344 L 185.125 26.027344 L 185.125 23.945312 C 185.125 21.632812 185.335938 21.09375 186.242188 20.976562 C 186.53125 20.9375 185.722656 20.917969 184.453125 20.917969 C 183.179688 20.917969 182.355469 20.957031 182.625 20.976562 Z M 182.625 20.976562 "/>
<path style=" stroke:none;fill-rule:nonzero;fill:rgb(0%,0%,0%);fill-opacity:1;" d="M 192.015625 20.957031 C 192.128906 20.996094 192.359375 20.996094 192.496094 20.957031 C 192.609375 20.898438 192.515625 20.859375 192.246094 20.859375 C 191.976562 20.859375 191.878906 20.898438 192.015625 20.957031 Z M 192.015625 20.957031 "/>
<path style=" stroke:none;fill-rule:nonzero;fill:rgb(0%,0%,0%);fill-opacity:1;" d="M 194.167969 20.976562 C 195.132812 21.113281 195.132812 21.132812 195.132812 26.316406 C 195.132812 31.503906 195.132812 31.523438 194.167969 31.65625 C 193.898438 31.675781 194.707031 31.714844 195.960938 31.714844 C 197.210938 31.714844 197.960938 31.65625 197.632812 31.601562 C 196.863281 31.445312 196.84375 31.40625 196.75 30.519531 C 196.652344 29.828125 196.730469 29.710938 198.132812 28.246094 C 198.960938 27.398438 200.308594 25.988281 201.15625 25.101562 C 202 24.234375 202.714844 23.523438 202.769531 23.523438 C 202.90625 23.523438 202.753906 31.195312 202.597656 31.332031 C 202.519531 31.40625 202.195312 31.523438 201.867188 31.601562 C 201.539062 31.65625 202.289062 31.714844 203.542969 31.714844 C 204.792969 31.714844 205.601562 31.675781 205.332031 31.65625 C 204.367188 31.523438 204.367188 31.503906 204.367188 26.316406 C 204.367188 21.132812 204.367188 21.113281 205.332031 20.976562 C 205.601562 20.957031 204.792969 20.917969 203.542969 20.917969 C 202.289062 20.917969 201.539062 20.976562 201.867188 21.035156 C 202.65625 21.207031 202.695312 21.265625 202.714844 22.152344 C 202.734375 22.867188 202.578125 23.078125 199.941406 25.894531 C 198.402344 27.53125 197.054688 28.902344 196.921875 28.902344 C 196.765625 28.921875 196.691406 27.976562 196.671875 25.429688 C 196.652344 21.574219 196.765625 21.09375 197.769531 20.976562 C 198.074219 20.9375 197.269531 20.917969 195.996094 20.917969 C 194.726562 20.917969 193.898438 20.957031 194.167969 20.976562 Z M 194.167969 20.976562 "/>
<path style=" stroke:none;fill-rule:nonzero;fill:rgb(0%,0%,0%);fill-opacity:1;" d="M 207.640625 20.957031 C 208.601562 21.148438 208.601562 21.132812 208.601562 26.316406 C 208.601562 31.503906 208.601562 31.484375 207.640625 31.675781 C 207.371094 31.714844 208.910156 31.773438 211.066406 31.792969 L 214.953125 31.8125 L 214.953125 30.886719 C 214.953125 30.386719 215.011719 29.769531 215.050781 29.5 L 215.164062 29.015625 L 214.953125 29.5 C 214.394531 30.75 213.296875 31.425781 211.796875 31.425781 C 210.277344 31.425781 210.101562 31.117188 210.179688 28.417969 L 210.238281 26.316406 L 211.605469 26.316406 C 212.703125 26.316406 213.066406 26.394531 213.394531 26.683594 L 213.796875 27.050781 L 213.796875 25.0625 L 213.414062 25.449219 C 213.105469 25.757812 212.777344 25.835938 211.585938 25.835938 L 210.140625 25.835938 L 210.140625 23.945312 C 210.140625 21.535156 210.335938 21.207031 211.71875 21.207031 C 212.96875 21.207031 213.816406 21.632812 214.335938 22.519531 L 214.761719 23.234375 L 214.761719 20.824219 L 210.96875 20.84375 C 208.871094 20.859375 207.371094 20.917969 207.640625 20.957031 Z M 207.640625 20.957031 "/>
<path style=" stroke:none;fill-rule:nonzero;fill:rgb(0%,0%,0%);fill-opacity:1;" d="M 150.449219 21.246094 C 150.601562 21.402344 150.679688 22.132812 150.679688 23.308594 C 150.679688 26.125 151.390625 27.222656 153.410156 27.492188 C 154.277344 27.609375 155.777344 27.320312 155.96875 26.992188 C 156.046875 26.875 155.894531 26.875 155.585938 26.992188 C 153.988281 27.589844 152.796875 26.933594 152.429688 25.238281 C 152.160156 24.042969 152.160156 22.171875 152.410156 21.515625 L 152.601562 21.015625 L 151.410156 21.015625 C 150.484375 21.015625 150.273438 21.074219 150.449219 21.246094 Z M 150.449219 21.246094 "/>
<path style=" stroke:none;fill-rule:nonzero;fill:rgb(0%,0%,0%);fill-opacity:1;" d="M 122.792969 27.492188 C 122.792969 27.707031 122.851562 27.761719 122.910156 27.609375 C 122.96875 27.472656 122.949219 27.300781 122.890625 27.242188 C 122.832031 27.164062 122.773438 27.28125 122.792969 27.492188 Z M 122.792969 27.492188 "/>
<path style=" stroke:none;fill-rule:nonzero;fill:rgb(0%,0%,0%);fill-opacity:1;" d="M 213.816406 27.492188 C 213.816406 27.707031 213.875 27.761719 213.933594 27.609375 C 213.992188 27.472656 213.972656 27.300781 213.914062 27.242188 C 213.855469 27.164062 213.796875 27.28125 213.816406 27.492188 Z M 213.816406 27.492188 "/>
<path style=" stroke:none;fill-rule:nonzero;fill:rgb(0%,0%,0%);fill-opacity:1;" d="M 65.429688 38.578125 C 65.429688 39.253906 65.371094 40.027344 65.332031 40.296875 C 65.273438 40.585938 65.371094 40.46875 65.601562 39.988281 C 66.160156 38.773438 67.007812 38.175781 68.140625 38.175781 C 68.988281 38.175781 69.125 38.234375 69.277344 38.675781 C 69.394531 38.945312 69.46875 41.085938 69.46875 43.4375 C 69.46875 48.21875 69.414062 48.507812 68.257812 48.625 C 67.929688 48.664062 68.777344 48.683594 70.144531 48.683594 C 71.527344 48.683594 72.375 48.664062 72.03125 48.625 C 71.703125 48.585938 71.335938 48.449219 71.222656 48.316406 C 71.066406 48.144531 71.027344 46.484375 71.046875 43.167969 L 71.105469 38.269531 L 71.953125 38.214844 C 73.433594 38.097656 74.183594 38.675781 74.683594 40.296875 C 74.78125 40.625 74.839844 40.351562 74.839844 39.390625 C 74.859375 38.636719 74.914062 37.847656 74.992188 37.652344 C 75.109375 37.347656 75.089844 37.347656 74.78125 37.578125 C 74.300781 37.980469 66.21875 38.019531 65.757812 37.617188 C 65.449219 37.382812 65.429688 37.460938 65.429688 38.578125 Z M 65.429688 38.578125 "/>
<path style=" stroke:none;fill-rule:nonzero;fill:rgb(0%,0%,0%);fill-opacity:1;" d="M 115.539062 37.789062 C 113.558594 38.214844 111.710938 39.640625 111.09375 41.222656 C 110.304688 43.285156 110.902344 45.964844 112.480469 47.410156 C 113.652344 48.488281 114.519531 48.816406 116.230469 48.835938 C 118.675781 48.855469 120.734375 47.640625 121.753906 45.539062 C 122.449219 44.113281 122.46875 42.203125 121.832031 40.835938 C 120.734375 38.523438 118.097656 37.25 115.539062 37.789062 Z M 117.925781 38.386719 C 119.542969 39.175781 120.542969 41.257812 120.542969 43.765625 C 120.523438 46.503906 119.195312 48.375 117.117188 48.546875 C 113.847656 48.816406 111.574219 44.574219 112.808594 40.488281 C 113.460938 38.328125 115.808594 37.363281 117.925781 38.386719 Z M 117.925781 38.386719 "/>
<path style=" stroke:none;fill-rule:nonzero;fill:rgb(0%,0%,0%);fill-opacity:1;" d="M 139.921875 37.789062 C 137.996094 38.195312 136.324219 39.464844 135.609375 41.046875 C 134.746094 42.957031 135.285156 45.867188 136.785156 47.351562 C 138.824219 49.414062 142.558594 49.355469 144.964844 47.253906 C 147.273438 45.210938 147.3125 41.316406 145.039062 39.121094 C 143.886719 37.980469 141.691406 37.421875 139.921875 37.789062 Z M 142.097656 38.25 C 143.847656 38.984375 144.964844 41.085938 144.964844 43.667969 C 144.984375 45.964844 144.25 47.449219 142.75 48.21875 C 141.324219 48.953125 139.613281 48.527344 138.421875 47.160156 C 136.726562 45.25 136.4375 41.257812 137.84375 39.253906 C 138.613281 38.15625 140.691406 37.652344 142.097656 38.25 Z M 142.097656 38.25 "/>
<path style=" stroke:none;fill-rule:nonzero;fill:rgb(0%,0%,0%);fill-opacity:1;" d="M 76.78125 37.925781 C 77.746094 38.117188 77.746094 38.097656 77.746094 43.285156 C 77.746094 48.46875 77.746094 48.449219 76.78125 48.644531 C 76.511719 48.683594 78.050781 48.742188 80.207031 48.757812 L 84.09375 48.777344 L 84.09375 47.851562 C 84.09375 47.351562 84.152344 46.734375 84.191406 46.464844 L 84.308594 45.984375 L 84.09375 46.464844 C 83.539062 47.71875 82.441406 48.394531 80.9375 48.394531 C 79.417969 48.394531 79.246094 48.085938 79.324219 45.386719 L 79.378906 43.285156 L 80.746094 43.285156 C 81.84375 43.285156 82.210938 43.359375 82.535156 43.648438 L 82.941406 44.015625 L 82.941406 42.03125 L 82.554688 42.417969 C 82.246094 42.726562 81.921875 42.800781 80.726562 42.800781 L 79.285156 42.800781 L 79.285156 40.914062 C 79.285156 38.503906 79.476562 38.175781 80.863281 38.175781 C 82.113281 38.175781 82.960938 38.597656 83.480469 39.484375 L 83.902344 40.199219 L 83.902344 37.789062 L 80.113281 37.808594 C 78.015625 37.828125 76.511719 37.886719 76.78125 37.925781 Z M 76.78125 37.925781 "/>
<path style=" stroke:none;fill-rule:nonzero;fill:rgb(0%,0%,0%);fill-opacity:1;" d="M 86.191406 38.097656 C 86.460938 38.214844 86.847656 38.484375 87.019531 38.695312 C 87.40625 39.121094 90.253906 43.535156 90.253906 43.707031 C 90.253906 43.765625 89.597656 44.691406 88.808594 45.769531 C 87.367188 47.738281 86.75 48.335938 85.902344 48.566406 C 85.652344 48.625 86.289062 48.683594 87.308594 48.683594 C 88.347656 48.703125 88.964844 48.644531 88.714844 48.585938 C 87.886719 48.375 88.097656 47.351562 89.292969 45.617188 C 89.867188 44.808594 90.386719 44.152344 90.464844 44.152344 C 90.597656 44.152344 93.140625 48.066406 93.140625 48.277344 C 93.140625 48.355469 92.964844 48.46875 92.734375 48.546875 C 92.503906 48.644531 93.179688 48.703125 94.351562 48.703125 C 96.277344 48.683594 96.335938 48.664062 95.699219 48.414062 C 95.179688 48.199219 94.71875 47.660156 93.410156 45.675781 C 92.503906 44.304688 91.734375 43.070312 91.675781 42.917969 C 91.542969 42.589844 93.753906 39.484375 94.738281 38.65625 C 95.160156 38.289062 95.679688 37.980469 95.910156 37.945312 C 96.121094 37.90625 95.46875 37.886719 94.410156 37.886719 C 93.042969 37.867188 92.660156 37.925781 93.042969 38.039062 C 93.503906 38.195312 93.5625 38.289062 93.46875 38.867188 C 93.371094 39.390625 91.542969 42.417969 91.3125 42.417969 C 91.214844 42.417969 88.714844 38.425781 88.714844 38.289062 C 88.714844 38.214844 88.90625 38.097656 89.117188 38 C 89.367188 37.925781 88.769531 37.867188 87.617188 37.867188 C 86.019531 37.886719 85.769531 37.925781 86.191406 38.097656 Z M 86.191406 38.097656 "/>
<path style=" stroke:none;fill-rule:nonzero;fill:rgb(0%,0%,0%);fill-opacity:1;" d="M 97.566406 37.945312 C 98.527344 38.078125 98.527344 38.097656 98.527344 43.285156 C 98.527344 48.46875 98.527344 48.488281 97.566406 48.625 C 97.296875 48.644531 98.105469 48.683594 99.355469 48.683594 C 100.605469 48.683594 101.355469 48.625 101.03125 48.566406 C 100.703125 48.488281 100.375 48.375 100.296875 48.296875 C 100.222656 48.238281 100.164062 47.0625 100.164062 45.734375 L 100.164062 43.285156 L 103.300781 43.226562 L 106.417969 43.1875 L 106.417969 45.460938 C 106.417969 47.988281 106.226562 48.507812 105.300781 48.625 C 105.011719 48.664062 105.820312 48.683594 107.089844 48.683594 C 108.363281 48.683594 109.1875 48.644531 108.917969 48.625 C 107.957031 48.488281 107.957031 48.46875 107.957031 43.285156 C 107.957031 38.097656 107.957031 38.078125 108.917969 37.945312 C 109.1875 37.925781 108.378906 37.886719 107.128906 37.886719 C 105.878906 37.886719 105.128906 37.945312 105.457031 38 C 105.78125 38.078125 106.109375 38.195312 106.1875 38.269531 C 106.265625 38.328125 106.359375 39.390625 106.378906 40.605469 L 106.457031 42.800781 L 100.066406 42.800781 L 100.066406 40.816406 C 100.066406 38.597656 100.277344 38.058594 101.183594 37.945312 C 101.472656 37.90625 100.664062 37.886719 99.394531 37.886719 C 98.125 37.886719 97.296875 37.925781 97.566406 37.945312 Z M 97.566406 37.945312 "/>
<path style=" stroke:none;fill-rule:nonzero;fill:rgb(0%,0%,0%);fill-opacity:1;" d="M 124.816406 37.925781 C 125.140625 37.960938 125.625 38.214844 125.875 38.484375 C 126.316406 38.945312 126.335938 39.121094 126.335938 41.222656 C 126.316406 45.171875 125.429688 47.410156 123.890625 47.429688 C 123.082031 47.429688 122.773438 47.621094 122.773438 48.125 C 122.773438 49.28125 124.699219 49.03125 125.46875 47.777344 C 126.160156 46.640625 126.449219 45.289062 126.664062 41.933594 C 126.777344 40.121094 126.96875 38.542969 127.066406 38.40625 C 127.335938 38.058594 130.355469 38.078125 130.644531 38.445312 C 130.894531 38.753906 130.875 48.046875 130.625 48.296875 C 130.550781 48.375 130.203125 48.488281 129.875 48.566406 C 129.53125 48.644531 130.28125 48.683594 131.550781 48.683594 C 132.800781 48.683594 133.628906 48.644531 133.359375 48.625 C 132.398438 48.488281 132.398438 48.46875 132.398438 43.285156 C 132.398438 38.097656 132.398438 38.117188 133.359375 37.925781 C 133.628906 37.886719 131.683594 37.847656 129.03125 37.847656 C 126.394531 37.847656 124.488281 37.886719 124.816406 37.925781 Z M 124.816406 37.925781 "/>
<path style=" stroke:none;fill-rule:nonzero;fill:rgb(0%,0%,0%);fill-opacity:1;" d="M 148.945312 37.925781 C 149.910156 38.117188 149.910156 38.097656 149.910156 43.285156 C 149.910156 48.46875 149.910156 48.488281 148.945312 48.625 C 148.675781 48.644531 149.640625 48.683594 151.0625 48.683594 C 152.488281 48.683594 153.277344 48.644531 152.816406 48.566406 C 151.46875 48.394531 151.449219 48.335938 151.449219 43.378906 C 151.449219 38.175781 151.449219 38.175781 153.140625 38.175781 C 154.546875 38.175781 155.375 38.65625 155.875 39.773438 L 156.257812 40.585938 L 156.257812 37.789062 L 152.371094 37.808594 C 150.214844 37.828125 148.675781 37.886719 148.945312 37.925781 Z M 148.945312 37.925781 "/>
<path style=" stroke:none;fill-rule:nonzero;fill:rgb(0%,0%,0%);fill-opacity:1;" d="M 157.796875 37.945312 C 158.761719 38.078125 158.761719 38.097656 158.761719 43.285156 C 158.761719 48.46875 158.761719 48.488281 157.796875 48.625 C 157.53125 48.644531 158.355469 48.683594 159.625 48.683594 C 160.898438 48.683594 161.707031 48.664062 161.417969 48.625 C 161.128906 48.585938 160.742188 48.375 160.589844 48.144531 C 160.03125 47.332031 160.222656 46.832031 161.800781 45.191406 C 162.609375 44.34375 163.957031 42.9375 164.765625 42.050781 C 165.824219 40.933594 166.304688 40.546875 166.382812 40.738281 C 166.535156 41.144531 166.402344 48.144531 166.226562 48.296875 C 166.152344 48.375 165.824219 48.488281 165.496094 48.566406 C 165.167969 48.625 165.917969 48.683594 167.171875 48.683594 C 168.421875 48.683594 169.230469 48.644531 168.960938 48.625 C 167.996094 48.488281 167.996094 48.46875 167.996094 43.285156 C 167.996094 38.097656 167.996094 38.078125 168.960938 37.945312 C 169.230469 37.925781 168.421875 37.886719 167.171875 37.886719 C 165.917969 37.886719 165.167969 37.945312 165.496094 38 C 166.265625 38.15625 166.285156 38.195312 166.382812 39.082031 C 166.476562 39.890625 166.824219 39.464844 161.957031 44.519531 L 160.398438 46.117188 L 160.339844 42.511719 C 160.28125 38.523438 160.398438 38.058594 161.398438 37.945312 C 161.707031 37.90625 160.898438 37.886719 159.625 37.886719 C 158.355469 37.886719 157.53125 37.925781 157.796875 37.945312 Z M 157.796875 37.945312 "/>
<path style=" stroke:none;fill-rule:nonzero;fill:rgb(0%,0%,0%);fill-opacity:1;" d="M 170.882812 37.945312 C 171.847656 38.078125 171.847656 38.097656 171.847656 43.285156 C 171.847656 48.46875 171.847656 48.488281 170.882812 48.625 C 170.613281 48.644531 171.421875 48.683594 172.675781 48.683594 C 173.925781 48.683594 174.675781 48.625 174.347656 48.566406 C 173.578125 48.414062 173.558594 48.375 173.464844 47.488281 C 173.386719 46.792969 173.445312 46.675781 174.945312 45.117188 C 175.8125 44.210938 177.15625 42.800781 177.929688 41.972656 C 178.714844 41.164062 179.410156 40.488281 179.46875 40.488281 C 179.621094 40.488281 179.46875 48.144531 179.3125 48.296875 C 179.234375 48.375 178.910156 48.488281 178.582031 48.566406 C 178.253906 48.625 179.003906 48.683594 180.257812 48.683594 C 181.507812 48.683594 182.316406 48.644531 182.046875 48.625 C 181.082031 48.488281 181.082031 48.46875 181.082031 43.285156 C 181.082031 38.097656 181.082031 38.078125 182.046875 37.945312 C 182.316406 37.925781 181.488281 37.886719 180.21875 37.886719 C 178.949219 37.886719 178.140625 37.90625 178.429688 37.945312 C 179.042969 38.019531 179.542969 38.636719 179.542969 39.292969 C 179.542969 39.601562 178.679688 40.679688 176.621094 42.878906 C 175.003906 44.613281 173.617188 45.984375 173.539062 45.945312 C 173.445312 45.90625 173.386719 44.285156 173.386719 42.359375 C 173.386719 38.484375 173.5 38.058594 174.503906 37.945312 C 174.792969 37.90625 173.984375 37.886719 172.710938 37.886719 C 171.441406 37.886719 170.613281 37.925781 170.882812 37.945312 Z M 170.882812 37.945312 "/>
<path style=" stroke:none;fill-rule:nonzero;fill:rgb(0%,0%,0%);fill-opacity:1;" d="M 82.960938 44.460938 C 82.960938 44.671875 83.015625 44.730469 83.074219 44.574219 C 83.132812 44.441406 83.113281 44.265625 83.054688 44.210938 C 83 44.132812 82.941406 44.25 82.960938 44.460938 Z M 82.960938 44.460938 "/>
</g>
</svg>
