<?xml version="1.0" encoding="UTF-8"?>
<svg xmlns="http://www.w3.org/2000/svg" xmlns:xlink="http://www.w3.org/1999/xlink" width="30px" height="30px" viewBox="0 0 30 30" version="1.1">
<g id="surface1">
<path style=" stroke:none;fill-rule:nonzero;fill:rgb(0%,0%,0%);fill-opacity:1;" d="M 26.695312 4.972656 L 21.933594 0.207031 C 21.800781 0.0742188 21.621094 0 21.433594 0 L 3.804688 0 C 3.414062 0 3.097656 0.316406 3.097656 0.707031 L 3.097656 29.292969 C 3.097656 29.683594 3.414062 30 3.804688 30 L 26.195312 30 C 26.585938 30 26.902344 29.683594 26.902344 29.292969 L 26.902344 5.472656 C 26.902344 5.285156 26.828125 5.101562 26.695312 4.972656 Z M 22.140625 2.414062 L 24.488281 4.765625 L 22.140625 4.765625 Z M 4.511719 1.414062 L 20.726562 1.414062 L 20.726562 2.382812 L 4.511719 2.382812 Z M 25.488281 28.585938 L 4.511719 28.585938 L 4.511719 3.796875 L 20.726562 3.796875 L 20.726562 5.472656 C 20.726562 5.863281 21.042969 6.179688 21.433594 6.179688 L 25.488281 6.179688 Z M 25.488281 28.585938 "/>
<path style=" stroke:none;fill-rule:nonzero;fill:rgb(0%,0%,0%);fill-opacity:1;" d="M 19.015625 13.863281 C 18.675781 13.863281 18.339844 13.878906 18.007812 13.898438 C 17.886719 13.90625 17.765625 13.917969 17.644531 13.925781 C 17.519531 13.796875 17.402344 13.667969 17.285156 13.53125 C 16.546875 12.65625 15.953125 11.667969 15.46875 10.640625 C 15.597656 10.144531 15.699219 9.625 15.761719 9.085938 C 15.875 8.101562 15.914062 6.980469 15.546875 6.042969 C 15.417969 5.722656 15.078125 5.328125 14.6875 5.523438 C 14.238281 5.75 14.113281 6.386719 14.074219 6.839844 C 14.046875 7.207031 14.066406 7.574219 14.128906 7.933594 C 14.191406 8.296875 14.292969 8.640625 14.402344 8.984375 C 14.503906 9.300781 14.617188 9.613281 14.738281 9.921875 C 14.660156 10.164062 14.578125 10.40625 14.492188 10.636719 C 14.289062 11.171875 14.070312 11.675781 13.859375 12.164062 C 13.746094 12.402344 13.636719 12.640625 13.53125 12.871094 C 13.195312 13.609375 12.828125 14.335938 12.417969 15.039062 C 11.460938 15.378906 10.601562 15.769531 9.886719 16.230469 C 9.503906 16.476562 9.164062 16.746094 8.882812 17.042969 C 8.617188 17.320312 8.347656 17.679688 8.324219 18.082031 C 8.308594 18.308594 8.398438 18.527344 8.582031 18.660156 C 8.835938 18.851562 9.175781 18.835938 9.46875 18.773438 C 10.4375 18.574219 11.179688 17.742188 11.808594 17.042969 C 12.246094 16.558594 12.742188 15.945312 13.257812 15.207031 C 13.261719 15.203125 13.261719 15.203125 13.261719 15.203125 C 14.152344 14.925781 15.117188 14.691406 16.144531 14.523438 C 16.613281 14.445312 17.097656 14.378906 17.585938 14.335938 C 17.933594 14.660156 18.304688 14.953125 18.714844 15.199219 C 19.03125 15.394531 19.367188 15.558594 19.71875 15.683594 C 20.078125 15.800781 20.4375 15.894531 20.808594 15.953125 C 20.996094 15.980469 21.1875 15.992188 21.382812 15.984375 C 21.816406 15.96875 22.445312 15.800781 22.484375 15.273438 C 22.5 15.109375 22.464844 14.96875 22.394531 14.84375 C 22.050781 14.230469 20.863281 14.039062 20.320312 13.953125 C 19.890625 13.882812 19.453125 13.863281 19.015625 13.863281 Z M 11.941406 15.816406 C 11.734375 16.132812 11.539062 16.417969 11.351562 16.667969 C 10.898438 17.289062 10.378906 18.023438 9.625 18.296875 C 9.484375 18.351562 9.292969 18.402344 9.097656 18.390625 C 8.917969 18.382812 8.746094 18.304688 8.753906 18.101562 C 8.757812 18 8.808594 17.863281 8.886719 17.734375 C 8.972656 17.589844 9.082031 17.457031 9.195312 17.335938 C 9.445312 17.074219 9.757812 16.820312 10.117188 16.585938 C 10.671875 16.230469 11.332031 15.90625 12.066406 15.617188 C 12.023438 15.683594 11.980469 15.75 11.941406 15.816406 Z M 14.507812 7.871094 C 14.449219 7.539062 14.441406 7.203125 14.476562 6.882812 C 14.492188 6.71875 14.527344 6.5625 14.574219 6.414062 C 14.613281 6.289062 14.703125 5.984375 14.839844 5.945312 C 15.070312 5.878906 15.140625 6.371094 15.167969 6.507812 C 15.3125 7.300781 15.183594 8.179688 15.007812 8.957031 C 14.980469 9.082031 14.945312 9.203125 14.914062 9.324219 C 14.859375 9.171875 14.808594 9.023438 14.757812 8.871094 C 14.65625 8.539062 14.5625 8.199219 14.507812 7.871094 Z M 16.078125 14.121094 C 15.21875 14.261719 14.398438 14.441406 13.628906 14.660156 C 13.722656 14.632812 14.148438 13.828125 14.242188 13.664062 C 14.6875 12.878906 15.050781 12.058594 15.3125 11.195312 C 15.773438 12.105469 16.335938 12.980469 17.023438 13.757812 C 17.085938 13.828125 17.152344 13.898438 17.21875 13.96875 C 16.832031 14.011719 16.453125 14.0625 16.078125 14.121094 Z M 21.902344 15.222656 C 21.871094 15.394531 21.507812 15.492188 21.335938 15.515625 C 20.835938 15.597656 20.304688 15.53125 19.824219 15.371094 C 19.496094 15.261719 19.179688 15.109375 18.878906 14.929688 C 18.578125 14.75 18.296875 14.535156 18.035156 14.300781 C 18.359375 14.28125 18.6875 14.269531 19.015625 14.273438 C 19.34375 14.277344 19.675781 14.292969 20.003906 14.335938 C 20.617188 14.40625 21.304688 14.617188 21.785156 15.015625 C 21.882812 15.09375 21.914062 15.164062 21.902344 15.222656 Z M 21.902344 15.222656 "/>
<path style=" stroke:none;fill-rule:nonzero;fill:rgb(0%,0%,0%);fill-opacity:1;" d="M 14.953125 22.003906 L 13.386719 22.003906 L 13.386719 26.527344 L 14.851562 26.527344 C 15.605469 26.527344 16.1875 26.324219 16.605469 25.917969 C 17.019531 25.507812 17.226562 24.925781 17.226562 24.171875 C 17.226562 23.46875 17.03125 22.933594 16.632812 22.5625 C 16.238281 22.191406 15.679688 22.003906 14.953125 22.003906 Z M 15.699219 25.203125 C 15.523438 25.417969 15.253906 25.527344 14.882812 25.527344 L 14.609375 25.527344 L 14.609375 22.992188 L 14.964844 22.992188 C 15.300781 22.992188 15.546875 23.09375 15.710938 23.292969 C 15.875 23.492188 15.957031 23.800781 15.957031 24.214844 C 15.957031 24.65625 15.871094 24.988281 15.699219 25.203125 Z M 15.699219 25.203125 "/>
<path style=" stroke:none;fill-rule:nonzero;fill:rgb(0%,0%,0%);fill-opacity:1;" d="M 12.234375 22.378906 C 11.949219 22.128906 11.519531 22.003906 10.949219 22.003906 L 9.382812 22.003906 L 9.382812 26.527344 L 10.605469 26.527344 L 10.605469 25.027344 L 10.949219 25.027344 C 11.496094 25.027344 11.921875 24.890625 12.21875 24.613281 C 12.515625 24.339844 12.667969 23.949219 12.667969 23.445312 C 12.667969 22.984375 12.523438 22.628906 12.234375 22.378906 Z M 11.265625 23.878906 C 11.15625 23.980469 11.011719 24.03125 10.828125 24.03125 L 10.605469 24.03125 L 10.605469 22.992188 L 10.921875 22.992188 C 11.257812 22.992188 11.429688 23.144531 11.429688 23.449219 C 11.429688 23.632812 11.375 23.773438 11.265625 23.878906 Z M 11.265625 23.878906 "/>
<path style=" stroke:none;fill-rule:nonzero;fill:rgb(0%,0%,0%);fill-opacity:1;" d="M 18.039062 26.527344 L 19.242188 26.527344 L 19.242188 24.828125 L 20.597656 24.828125 L 20.597656 23.847656 L 19.242188 23.847656 L 19.242188 22.984375 L 20.710938 22.984375 L 20.710938 22.003906 L 18.039062 22.003906 Z M 18.039062 26.527344 "/>
</g>
</svg>
