<?xml version="1.0" encoding="UTF-8"?>
<svg xmlns="http://www.w3.org/2000/svg" xmlns:xlink="http://www.w3.org/1999/xlink" width="30px" height="30px" viewBox="0 0 30 30" version="1.1">
<g id="surface1">
<path style=" stroke:none;fill-rule:evenodd;fill:rgb(0%,0%,0%);fill-opacity:1;" d="M 28.125 26.25 C 28.125 27.28125 27.285156 28.125 26.25 28.125 L 3.75 28.125 C 2.714844 28.125 1.875 27.28125 1.875 26.25 L 1.875 3.75 C 1.875 2.71875 2.714844 1.875 3.75 1.875 L 26.25 1.875 C 27.285156 1.875 28.125 2.71875 28.125 3.75 Z M 26.25 0 L 3.75 0 C 1.679688 0 0 1.679688 0 3.75 L 0 26.25 C 0 28.320312 1.679688 30 3.75 30 L 26.25 30 C 28.320312 30 30 28.320312 30 26.25 L 30 3.75 C 30 1.679688 28.320312 0 26.25 0 Z M 20.625 14.0625 L 15.9375 14.0625 L 15.9375 9.375 C 15.9375 8.859375 15.515625 8.4375 15 8.4375 C 14.484375 8.4375 14.0625 8.859375 14.0625 9.375 L 14.0625 14.0625 L 9.375 14.0625 C 8.859375 14.0625 8.4375 14.484375 8.4375 15 C 8.4375 15.515625 8.859375 15.9375 9.375 15.9375 L 14.0625 15.9375 L 14.0625 20.625 C 14.0625 21.140625 14.484375 21.5625 15 21.5625 C 15.515625 21.5625 15.9375 21.140625 15.9375 20.625 L 15.9375 15.9375 L 20.625 15.9375 C 21.140625 15.9375 21.5625 15.515625 21.5625 15 C 21.5625 14.484375 21.140625 14.0625 20.625 14.0625 Z M 20.625 14.0625 "/>
</g>
</svg>
