<?xml version="1.0" encoding="UTF-8"?>
<svg xmlns="http://www.w3.org/2000/svg" xmlns:xlink="http://www.w3.org/1999/xlink" width="30px" height="30px" viewBox="0 0 30 30" version="1.1">
<g id="surface1">
<path style=" stroke:none;fill-rule:evenodd;fill:rgb(24.705882%,82.352941%,78.039216%);fill-opacity:1;" d="M 13.164062 6.835938 C 13.527344 7.203125 13.527344 7.796875 13.164062 8.164062 L 7.261719 14.0625 L 25 14.0625 C 25.519531 14.0625 25.9375 14.480469 25.9375 15 C 25.9375 15.519531 25.519531 15.9375 25 15.9375 L 7.261719 15.9375 L 13.164062 21.835938 C 13.527344 22.203125 13.527344 22.796875 13.164062 23.164062 C 12.796875 23.527344 12.203125 23.527344 11.835938 23.164062 L 4.335938 15.664062 C 3.972656 15.296875 3.972656 14.703125 4.335938 14.335938 L 11.835938 6.835938 C 12.203125 6.472656 12.796875 6.472656 13.164062 6.835938 Z M 13.164062 6.835938 "/>
</g>
</svg>
