<?xml version="1.0" encoding="UTF-8"?>
<svg xmlns="http://www.w3.org/2000/svg" xmlns:xlink="http://www.w3.org/1999/xlink" width="30px" height="30px" viewBox="0 0 30 30" version="1.1">
<g id="surface1">
<path style=" stroke:none;fill-rule:evenodd;fill:rgb(24.705882%,82.352941%,78.039216%);fill-opacity:1;" d="M 16.835938 6.835938 C 17.203125 6.472656 17.796875 6.472656 18.164062 6.835938 L 25.664062 14.335938 C 26.027344 14.703125 26.027344 15.296875 25.664062 15.664062 L 18.164062 23.164062 C 17.796875 23.527344 17.203125 23.527344 16.835938 23.164062 C 16.472656 22.796875 16.472656 22.203125 16.835938 21.835938 L 22.738281 15.9375 L 5 15.9375 C 4.480469 15.9375 4.0625 15.519531 4.0625 15 C 4.0625 14.480469 4.480469 14.0625 5 14.0625 L 22.738281 14.0625 L 16.835938 8.164062 C 16.472656 7.796875 16.472656 7.203125 16.835938 6.835938 Z M 16.835938 6.835938 "/>
</g>
</svg>
